<?xml version="1.0" encoding="utf-8"?>
<!-- Generator: Adobe Illustrator 15.0.2, SVG Export Plug-In . SVG Version: 6.00 Build 0)  -->
<!DOCTYPE svg PUBLIC "-//W3C//DTD SVG 1.1//EN" "http://www.w3.org/Graphics/SVG/1.1/DTD/svg11.dtd">
<svg version="1.1" id="Layer_1" xmlns="http://www.w3.org/2000/svg" xmlns:xlink="http://www.w3.org/1999/xlink" x="0px" y="0px"
	 width="336.226px" height="424.432px" viewBox="0 0 336.226 424.432" enable-background="new 0 0 336.226 424.432"
	 xml:space="preserve">
<g>
	<polygon fill="#015173" points="168.747,6.821 0,0 26.051,389.018 168.747,424.432 311.444,389.018 336.226,0 	"/>
	<polygon fill="#1B9DD9" points="168.747,31.328 20.903,24.507 42.13,369.551 170.275,399.93 295.362,369.551 315.321,24.507 	"/>
	<polygon id="Shadow" fill="#008CC7" points="170.275,31.328 22.433,24.507 43.66,369.551 170.275,399.93 	"/>
	<path id="Rocket_4_" fill="#FFFFFF" d="M127.43,196.378c7.468,1.613,14.776-1.494,20.668-5.545
		c69.505,43.314,118.731,36.668,118.731,36.668s-4.42-49.347-61.847-107.426c2.924-6.865,4.684-15.146,1.256-22.439
		c-10.659-22.71-73.339-41.537-73.339-41.537s20.174,24.772,26.632,32.695c2.917,3.581,5.577,8.729,7.624,13.284l-12.41,15.542
		C135.248,99.072,67.543,64.25,67.543,64.25s44.888,63.413,67.292,78.313l-11.099,13.914l-15.283-3.681l-37.789-18.726
		C70.665,134.069,102.922,191.013,127.43,196.378z M223.931,193.271c-4.976,6.227-14.078,7.255-20.314,2.274
		c-6.237-4.98-7.262-14.081-2.28-20.33c4.976-6.239,14.078-7.252,20.31-2.268C227.897,177.919,228.916,187.02,223.931,193.271z"/>
	<g>
		<rect x="92.719" y="256.534" fill="none" width="153.845" height="87.387"/>
		<path fill="#FFFFFF" d="M97.176,256.532h27.517v12.365h-15.485v21.5h11.141v13.146h-11.141v22.504h15.485v12.365H97.176V256.532z"
			/>
		<path fill="#FFFFFF" d="M144.076,295.745l-1.002-3.787h-0.668v3.787v42.668h-11.029v-81.881h10.695l11.698,42.666l1.002,3.789
			h0.668v-3.789v-42.666h11.029v81.881h-10.695L144.076,295.745z"/>
		<path fill="#FFFFFF" d="M171.146,268.897v-12.365h34.758v12.365H194.54v69.516h-12.031v-69.516H171.146z"/>
		<path fill="#FFFFFF" d="M225.51,255.639c14.482-0.334,16.821,12.59,16.821,21.725l-11.809,1.113c0-5.459-0.779-11.809-4.79-11.809
			c-3.119,0.111-4.122,3.453-4.122,8.133c0,5.57,4.79,11.809,9.469,18.604c5.57,8.355,11.252,16.488,11.252,25.289
			c0,10.918-3.564,20.611-16.71,20.611c-15.485,0-17.491-11.699-17.491-23.842l11.81-1.113c0,6.795,0.668,13.926,5.682,13.926
			c3.564,0,4.901-3.9,4.901-9.023c0-5.459-5.124-12.033-9.692-18.939c-5.682-8.355-11.028-16.711-11.028-25.512
			C209.802,265.889,214.146,255.862,225.51,255.639z"/>
	</g>
</g>
</svg>
